<?xml version="1.0" encoding="utf-8"?>
<!-- Generator: Adobe Illustrator 24.1.2, SVG Export Plug-In . SVG Version: 6.00 Build 0)  -->
<svg version="1.1" id="Warstwa_1" xmlns="http://www.w3.org/2000/svg" xmlns:xlink="http://www.w3.org/1999/xlink" x="0px" y="0px"
	 viewBox="0 0 248 21.4" style="enable-background:new 0 0 248 21.4;" xml:space="preserve">
<style type="text/css">
	.st0{fill:#FFFFFF;}
</style>
<g id="Warstwa_2_1_">
	<g id="Warstwa_1-2">
		<path class="st0" d="M34,11.2h-4.2V9.6c0-0.4,0.1-0.7,0.4-0.8c0.5-0.2,1.1-0.4,1.7-0.3c0.5-0.1,1.1,0.1,1.6,0.3
			C33.9,8.9,34,9.2,34,9.6V11.2z M36.1,7.2c-1.2-0.7-2.6-1-4-0.9c-1.5-0.1-3,0.2-4.3,1c-1,0.7-1.6,1.9-1.4,3.1v4.2
			c-0.1,1.1,0.5,2.2,1.5,2.8c1.4,0.7,3.1,1,4.6,1c1.6,0,3.1-0.1,4.6-0.4v-2.2c-1.3,0.3-2.5,0.4-3.9,0.5c-0.9,0.1-1.8-0.1-2.6-0.4
			c-0.4-0.3-0.7-0.8-0.7-1.4v-1h7.5v-2.8C37.3,8.8,36.9,7.8,36.1,7.2"/>
		<path class="st0" d="M19.5,7.2c-1,0.7-1.6,1.9-1.4,3.1V18h3.5V9.6c0-0.4,0.1-0.7,0.4-0.8c0.5-0.2,1.1-0.4,1.7-0.3h0.5V6.3h-0.1
			c-0.1,0-0.3,0-0.4,0C22.3,6.2,20.8,6.5,19.5,7.2"/>
		<path class="st0" d="M86.5,7.2c-1.3-0.7-2.8-1-4.3-1c-1.5-0.1-2.9,0.2-4.3,1c-1,0.7-1.6,1.9-1.4,3.1V18H80V9.6
			c0-0.4,0.1-0.7,0.4-0.8c1.1-0.4,2.3-0.4,3.4,0c0.3,0.1,0.4,0.5,0.4,0.8V18h3.5v-7.6C88,9.1,87.4,7.9,86.5,7.2"/>
		<path class="st0" d="M70.2,13.1V15c0,0.4-0.1,0.7-0.4,0.8c-1.1,0.4-2.3,0.4-3.4,0c-0.3-0.1-0.4-0.5-0.4-0.8V9.6
			c0-0.4,0.1-0.7,0.4-0.8c1.1-0.4,2.3-0.4,3.4,0c0.3,0.1,0.4,0.5,0.4,0.8V13.1z M72.3,7.2c-1.3-0.7-2.8-1-4.3-1
			c-1.5-0.1-2.9,0.2-4.3,1c-1,0.7-1.6,1.9-1.4,3.1V14c-0.1,1.3,0.4,2.5,1.4,3.2c1.3,0.7,2.8,1,4.3,1c1.5,0.1,2.9-0.2,4.3-1
			c1-0.7,1.6-1.9,1.4-3.1v-3.7C73.9,9.1,73.3,7.9,72.3,7.2"/>
		<path class="st0" d="M50,7.2c-1.3-0.7-2.8-1-4.2-1c-1.5-0.1-2.9,0.2-4.3,1c-1,0.7-1.6,1.9-1.4,3.1V18h3.5V9.6
			c0-0.4,0.1-0.7,0.4-0.8c0.5-0.2,1.1-0.4,1.7-0.3c0.6-0.1,1.2,0.1,1.7,0.3C47.8,8.9,48,9.3,48,9.6V18h3.5v-7.6
			C51.5,9.1,51,7.9,50,7.2"/>
		<path class="st0" d="M60.4,8.7V6.5h-2.7V4.2h-3.5v9.9c-0.1,1.3,0.4,2.5,1.4,3.2c1.3,0.7,2.8,1,4.3,1c0.1,0,0.3,0,0.4,0h0.1v-2.1
			h-0.5c-0.6,0.1-1.2-0.1-1.7-0.3c-0.3-0.1-0.4-0.4-0.4-0.8V8.7H60.4z"/>
		<path class="st0" d="M8.9,2.3c-0.7,0-1.4,0-2.1,0.1C6.1,2.4,5.4,2.7,4.7,2.9C4.1,3,3.5,3.3,2.9,3.7S2,4.6,1.7,5.2
			C1.3,5.9,1.1,6.6,1.1,7.3v6.4c0,0.7,0.1,1.3,0.4,1.9c0.3,0.5,0.7,1,1.1,1.3c0.5,0.4,1.1,0.6,1.7,0.7c0.7,0.2,1.3,0.3,2.1,0.4
			c0.7,0.1,1.6,0.1,2.3,0.1c1.1,0,2.2-0.1,3.4-0.2c1-0.1,2-0.4,3.1-0.7V9.3H9.1v2.4h2.7v3.6h-0.1c-0.7,0.2-1.6,0.3-2.3,0.3
			c-1.1,0.1-2.2-0.1-3.2-0.4c-0.8-0.1-1.3-0.8-1.3-1.6V7.3c0-0.7,0.4-1.4,1-1.8c1-0.4,1.9-0.6,3-0.5c2,0,4,0.2,6.1,0.6V2.7
			C13,2.4,10.9,2.3,8.9,2.3"/>
	</g>
</g>
<g>
	<path class="st0" d="M98.3,18c-1.7,0-2.8-0.1-3.4-0.2c-0.2,0-0.4-0.2-0.4-0.4V2.9c0-0.2,0.2-0.4,0.4-0.4c0.6-0.1,1.8-0.2,3.4-0.2
		c3.5,0,6.1,1.7,6.1,6.6v2.6C104.4,16.2,101.9,18,98.3,18z M103.5,8.9c0-4.4-2.2-5.7-5.2-5.7c-1.2,0-1.9,0.1-2.9,0.1v13.9
		c0.9,0.1,1.6,0.1,2.9,0.1c2.9,0,5.2-1.4,5.2-5.7V8.9z"/>
	<path class="st0" d="M111.1,18c-2.9,0-4.3-1.8-4.3-5v-1.5c0-3.1,1.4-5,4.3-5c2.9,0,4.3,1.8,4.3,5V13C115.4,16.2,114,18,111.1,18z
		 M114.5,11.6c0-2.6-0.9-4.2-3.4-4.2s-3.4,1.6-3.4,4.2V13c0,2.6,0.9,4.2,3.4,4.2s3.4-1.6,3.4-4.2V11.6z"/>
	<path class="st0" d="M128.5,16.9c-0.2,0.8-0.4,1.1-1.1,1.1c-0.7,0-0.9-0.4-1.1-1.2l-2.2-7.9C124,8.7,124,8.7,124,8.7
		s-0.1,0-0.1,0.2l-2.2,7.9c-0.2,0.8-0.4,1.2-1.1,1.2c-0.6,0-0.9-0.3-1.1-1.1l-2.3-9.7c-0.1-0.2,0-0.5,0.4-0.5h0.1
		c0.2,0,0.3,0.1,0.3,0.3l2.3,9.7c0.1,0.5,0.2,0.5,0.3,0.5c0.1,0,0.1-0.1,0.3-0.5l2.3-8c0.1-0.5,0.5-0.7,0.9-0.7
		c0.4,0,0.7,0.2,0.9,0.7l2.2,8c0.1,0.4,0.2,0.5,0.3,0.5s0.2,0,0.3-0.5l2.2-9.7c0-0.1,0.1-0.3,0.3-0.3h0.1c0.4,0,0.5,0.2,0.4,0.5
		L128.5,16.9z"/>
	<path class="st0" d="M140.8,17.9h-0.1c-0.2,0-0.4-0.2-0.4-0.4v-6.9c0-2.4-1.2-3.2-2.8-3.2c-1.1,0-2.2,0.4-3.3,0.9v9.2
		c0,0.2-0.2,0.4-0.4,0.4h-0.1c-0.2,0-0.4-0.2-0.4-0.4V7.1c0-0.2,0.1-0.4,0.4-0.4h0.2c0.2,0,0.4,0.2,0.4,0.4v0.3
		c1.1-0.5,2.3-0.9,3.4-0.9c2,0,3.7,1.1,3.7,4v6.9C141.2,17.7,141,17.9,140.8,17.9z"/>
	<path class="st0" d="M144.9,18h-0.2c-0.2,0-0.4-0.2-0.4-0.4V2.8c0-0.2,0.1-0.4,0.4-0.4h0.2c0.2,0,0.4,0.2,0.4,0.4v14.8
		C145.2,17.8,145.1,18,144.9,18z"/>
	<path class="st0" d="M152.3,18c-2.9,0-4.3-1.8-4.3-5v-1.5c0-3.1,1.4-5,4.3-5c2.9,0,4.3,1.8,4.3,5V13C156.6,16.2,155.2,18,152.3,18z
		 M155.7,11.6c0-2.6-0.9-4.2-3.4-4.2S149,9,149,11.6V13c0,2.6,0.9,4.2,3.4,4.2s3.4-1.6,3.4-4.2V11.6z"/>
	<path class="st0" d="M166.1,17.9H166c-0.2,0-0.4-0.2-0.4-0.4v-0.5c-1,0.6-2.2,1.1-3.5,1.1c-1.6,0-3.2-0.7-3.2-3.4v-0.3
		c0-2.1,1.4-3.2,5.1-3.2h1.6v-0.7c0-2.2-0.6-3-2.6-3c-1.4,0-2,0.1-3,0.2c-0.2,0-0.5,0-0.5-0.3V7.1c0-0.3,0.2-0.3,0.5-0.4
		c0.9-0.1,1.6-0.2,3-0.2c2.8,0,3.5,1.6,3.5,3.8v7C166.5,17.7,166.3,17.9,166.1,17.9z M165.6,12H164c-3.1,0-4.2,0.6-4.2,2.4v0.3
		c0,1.9,1,2.5,2.3,2.5c1.2,0,2.2-0.3,3.6-1.1V12z"/>
	<path class="st0" d="M176.7,17.6c-0.9,0.2-2.3,0.4-3.5,0.4c-2.9,0-4.1-2.1-4.1-5.1v-1.4c0-3.3,1.4-5,4.1-5c0.8,0,2.1,0.1,2.9,0.3
		V2.8c0-0.2,0.1-0.4,0.4-0.4h0.2c0.2,0,0.4,0.2,0.4,0.4v14.4C177,17.5,176.9,17.5,176.7,17.6z M176.1,7.7c-0.8-0.2-2.1-0.3-2.9-0.3
		c-2.3,0-3.2,1.4-3.2,4.2v1.4c0,2.7,0.8,4.2,3.2,4.2c1,0,2.1-0.1,2.9-0.3V7.7z"/>
	<path class="st0" d="M183,18c-0.9,0-2.3-0.1-3-0.3c-0.3-0.1-0.5-0.1-0.5-0.3v-0.2c0-0.2,0.2-0.3,0.5-0.3c1,0.2,2.2,0.3,3.1,0.3
		c1.5,0,2.6-0.4,2.6-2.1c0-0.9-0.5-1.3-2.2-2.3l-1.3-0.7c-1.6-0.9-2.5-1.5-2.5-3c0-1.9,1.5-2.6,3.2-2.6c1.5,0,2.3,0.1,3,0.2
		c0.3,0,0.4,0.1,0.4,0.4v0.2c0,0.3-0.1,0.4-0.4,0.3c-0.5-0.1-1.8-0.2-2.9-0.2c-1.3,0-2.4,0.3-2.4,1.7c0,0.9,0.7,1.5,2,2.2l1.4,0.8
		c1.7,1,2.6,1.6,2.6,3C186.6,17.3,184.9,18,183,18z"/>
</g>
</svg>
